<svg width="812" height="564" viewBox="0 0 812 564" fill="none" xmlns="http://www.w3.org/2000/svg">
<g clip-path="url(#clip0_4_114)">
<path d="M317.675 321.71C312.315 319.24 311.555 315.51 309.865 312.58C272.895 248.78 236.135 184.85 198.895 121.2C194.335 113.41 194.525 109.92 202.825 105.27C240.595 84.0798 277.965 62.1798 317.575 39.3198C317.575 54.2098 317.945 67.3398 317.425 80.4298C317.145 87.5498 319.185 91.7498 325.705 95.4098C359.065 114.12 392.185 133.26 425.165 152.64C430.675 155.88 434.525 155.76 439.985 152.57C476.775 131.1 513.855 110.13 550.685 88.7498C558.745 84.0698 566.265 79.1298 576.225 89.3098C576.225 70.8998 576.055 54.9198 576.325 38.9598C576.415 33.5998 574.165 32.2998 569.305 32.3198C541.245 32.4598 513.185 32.4698 485.135 32.2998C480.385 32.2698 476.905 34.6598 473.185 36.8098C445.175 52.9698 417.025 68.8998 389.305 85.5498C382.575 89.5998 377.565 89.6998 371.345 85.3998C364.875 80.9298 357.895 77.2098 349.195 71.9998C371.735 58.8598 393.205 46.3398 416.295 32.8698C398.025 22.1798 381.045 12.2398 363.995 2.25977C365.835 -1.09023 368.505 0.309767 370.545 0.309767C446.045 0.219767 521.525 0.409767 596.995 -0.000233205C606.045 -0.0502332 608.015 2.40977 607.915 11.1198C607.445 54.5598 607.695 98.0198 607.695 143.6C598.355 138.18 589.715 134.32 582.465 128.69C569.985 119.02 559.355 119.39 545.745 128.02C516.785 146.37 486.665 162.9 456.745 179.68C450.365 183.26 448.155 187.22 448.215 194.47C448.565 236.75 448.175 279.04 448.545 321.32C448.635 330.96 448.295 339.34 435.505 342.61C451.335 351.79 465.755 359.89 479.855 368.51C484.305 371.23 486.035 369.52 488.065 365.98C502.175 341.34 516.305 316.72 530.555 292.16C532.515 288.78 532.045 285.33 532.045 281.82C532.045 251 532.655 220.15 531.735 189.36C531.375 177.17 534.815 170.16 546.025 164.68C564.565 155.61 564.185 154.84 564.185 175.63V232.15C582.145 221.99 598.605 212.68 615.475 203.13C617.235 207.75 614.675 209.71 613.485 211.78C576.335 276.39 539.115 340.96 501.745 405.44C499.585 409.17 498.945 416.29 490.995 411.64C451.905 388.81 412.675 366.23 372.485 342.98C385.175 335.6 396.615 328.62 408.385 322.26C414.255 319.09 416.745 315.28 416.705 308.34C416.465 270.01 416.555 231.68 417.015 193.35C417.105 186.19 413.985 182.98 408.315 179.73C371.005 158.4 333.945 136.62 296.635 115.27C289.445 111.16 282.575 107.59 286.295 94.4198C268.965 104.23 254.145 112.55 239.395 120.99C235.185 123.4 238.855 125.96 239.935 127.85C253.795 152.18 267.945 176.34 281.735 200.7C283.865 204.47 286.965 206.32 290.375 208.28C318.755 224.58 346.985 241.15 375.565 257.1C382.655 261.06 385.865 265.47 385.005 273.74C384.195 281.54 384.835 289.5 384.835 299.39C361.925 286.32 340.365 274.02 317.645 261.06V321.73L317.675 321.71Z" fill="#0959BA"/>
</g>
<path d="M91.9 453.15H109.8L85.3 523.15H69.8L63.2 503.65L55.2 480.15L47.4 503.65L40.7 523.15H25.5L0.9 453.15H18.8L27.6 481.05L33.3 500.95L49.2 453.15H61L77.3 501.25L83.4 481.05L91.9 453.15ZM134.242 509.35H172.842V523.15H118.342V453.15H171.742V466.85H134.242V481.05H169.742V494.25H134.242V509.35ZM200.844 509.35H239.444V523.15H184.944V453.15H238.344V466.85H200.844V481.05H236.344V494.25H200.844V509.35ZM274.983 453.15H291.383V508.35H326.583V523.15H274.983V453.15ZM368.546 524.85C361.013 524.85 354.379 523.35 348.646 520.35C342.979 517.283 338.579 512.983 335.446 507.45C332.379 501.917 330.846 495.483 330.846 488.15C330.846 480.817 332.379 474.383 335.446 468.85C338.579 463.317 342.979 459.05 348.646 456.05C354.379 452.983 361.013 451.45 368.546 451.45C376.079 451.45 382.679 452.983 388.346 456.05C394.079 459.05 398.479 463.317 401.546 468.85C404.679 474.383 406.246 480.817 406.246 488.15C406.246 495.483 404.679 501.917 401.546 507.45C398.479 512.983 394.079 517.283 388.346 520.35C382.679 523.35 376.079 524.85 368.546 524.85ZM368.546 510.25C372.746 510.25 376.446 509.35 379.646 507.55C382.913 505.683 385.413 503.083 387.146 499.75C388.946 496.417 389.846 492.55 389.846 488.15C389.846 483.75 388.946 479.883 387.146 476.55C385.413 473.217 382.913 470.65 379.646 468.85C376.446 466.983 372.746 466.05 368.546 466.05C364.346 466.05 360.646 466.983 357.446 468.85C354.246 470.65 351.746 473.217 349.946 476.55C348.213 479.883 347.346 483.75 347.346 488.15C347.346 492.55 348.213 496.417 349.946 499.75C351.746 503.083 354.246 505.683 357.446 507.55C360.646 509.35 364.346 510.25 368.546 510.25ZM480.463 481.75V512.95C476.93 516.75 472.563 519.683 467.363 521.75C462.23 523.75 456.563 524.75 450.363 524.75C442.963 524.75 436.463 523.25 430.863 520.25C425.33 517.25 421.03 512.983 417.963 507.45C414.963 501.917 413.463 495.483 413.463 488.15C413.463 481.017 415.063 474.683 418.263 469.15C421.463 463.55 425.93 459.217 431.663 456.15C437.463 453.017 444.097 451.45 451.563 451.45C456.963 451.45 461.83 452.383 466.163 454.25C470.563 456.117 474.597 458.95 478.263 462.75L468.363 472.55C466.163 470.35 463.563 468.65 460.563 467.45C457.63 466.25 454.597 465.65 451.463 465.65C444.73 465.65 439.397 467.683 435.463 471.75C431.597 475.75 429.663 481.217 429.663 488.15C429.663 492.617 430.53 496.55 432.263 499.95C433.997 503.35 436.463 505.983 439.663 507.85C442.863 509.717 446.563 510.65 450.763 510.65C457.363 510.65 462.63 508.95 466.563 505.55V494.85H447.563V481.75H480.463ZM492.659 453.15H509.059V523.15H492.659V453.15ZM550.297 524.75C544.564 524.75 539.03 523.883 533.697 522.15C528.43 520.417 523.864 517.983 519.997 514.85L528.497 502.95C534.697 507.817 541.93 510.25 550.197 510.25C554.33 510.25 557.597 509.55 559.997 508.15C562.464 506.75 563.697 504.85 563.697 502.45C563.697 500.183 562.564 498.417 560.297 497.15C558.03 495.883 554.43 494.983 549.497 494.45C539.964 493.383 532.964 491.15 528.497 487.75C524.097 484.35 521.897 479.483 521.897 473.15C521.897 468.883 523.097 465.117 525.497 461.85C527.897 458.583 531.264 456.05 535.597 454.25C539.93 452.45 544.93 451.55 550.597 451.55C555.464 451.55 560.197 452.25 564.797 453.65C569.464 455.05 573.564 457.017 577.097 459.55L569.397 471.05C563.93 467.25 557.897 465.35 551.297 465.35C547.23 465.35 543.964 466.017 541.497 467.35C539.097 468.683 537.897 470.483 537.897 472.75C537.897 474.95 538.93 476.65 540.997 477.85C543.13 479.05 546.664 479.95 551.597 480.55C561.064 481.617 568.13 483.983 572.797 487.65C577.464 491.25 579.797 496.217 579.797 502.55C579.797 506.95 578.564 510.85 576.097 514.25C573.63 517.583 570.164 520.183 565.697 522.05C561.23 523.85 556.097 524.75 550.297 524.75ZM642.927 453.15V467.45H621.527V523.15H605.127V467.45H583.827V453.15H642.927ZM652.034 453.15H668.434V523.15H652.034V453.15ZM717.472 524.75C709.939 524.75 703.305 523.217 697.572 520.15C691.905 517.083 687.505 512.783 684.372 507.25C681.305 501.717 679.772 495.35 679.772 488.15C679.772 480.95 681.339 474.583 684.472 469.05C687.672 463.45 692.105 459.15 697.772 456.15C703.439 453.083 709.905 451.55 717.172 451.55C727.505 451.55 736.372 455.183 743.772 462.45L733.672 472.55C729.205 468.283 723.839 466.15 717.572 466.15C713.372 466.15 709.639 467.083 706.372 468.95C703.172 470.75 700.672 473.317 698.872 476.65C697.139 479.983 696.272 483.817 696.272 488.15C696.272 492.483 697.139 496.317 698.872 499.65C700.672 502.983 703.172 505.583 706.372 507.45C709.639 509.25 713.372 510.15 717.572 510.15C720.905 510.15 724.105 509.55 727.172 508.35C730.239 507.15 732.905 505.417 735.172 503.15L744.772 513.85C737.239 521.117 728.139 524.75 717.472 524.75ZM779.496 524.75C773.763 524.75 768.229 523.883 762.896 522.15C757.629 520.417 753.063 517.983 749.196 514.85L757.696 502.95C763.896 507.817 771.129 510.25 779.396 510.25C783.529 510.25 786.796 509.55 789.196 508.15C791.663 506.75 792.896 504.85 792.896 502.45C792.896 500.183 791.763 498.417 789.496 497.15C787.229 495.883 783.629 494.983 778.696 494.45C769.163 493.383 762.163 491.15 757.696 487.75C753.296 484.35 751.096 479.483 751.096 473.15C751.096 468.883 752.296 465.117 754.696 461.85C757.096 458.583 760.463 456.05 764.796 454.25C769.129 452.45 774.129 451.55 779.796 451.55C784.663 451.55 789.396 452.25 793.996 453.65C798.663 455.05 802.763 457.017 806.296 459.55L798.596 471.05C793.129 467.25 787.096 465.35 780.496 465.35C776.429 465.35 773.163 466.017 770.696 467.35C768.296 468.683 767.096 470.483 767.096 472.75C767.096 474.95 768.129 476.65 770.196 477.85C772.329 479.05 775.863 479.95 780.796 480.55C790.263 481.617 797.329 483.983 801.996 487.65C806.663 491.25 808.996 496.217 808.996 502.55C808.996 506.95 807.763 510.85 805.296 514.25C802.829 517.583 799.363 520.183 794.896 522.05C790.429 523.85 785.296 524.75 779.496 524.75Z" fill="#0959BA"/>
<defs>
<clipPath id="clip0_4_114">
<rect width="420.17" height="413.15" fill="white" transform="translate(195.915)"/>
</clipPath>
</defs>
</svg>
